<svg width="200" height="200" viewBox="0 0 200 200" fill="none" xmlns="http://www.w3.org/2000/svg">
<path d="M200 100C151 100 100 100 100 100C44.7715 100 99.5 100 0 100C0 44.7715 44.7715 0 100 0C155.228 0 200 44.7715 200 100Z" fill="#EE1515"/>
<path d="M200 100C151 100 100 100 100 100C44.7715 100 99.5 100 0 100C0 44.7715 44.7715 0 100 0C155.228 0 200 44.7715 200 100Z" fill="#EE1515"/>
<path d="M0 100C49 100 100 100 100 100C155.228 100 100.5 100 200 100C200 155.228 155.228 200 100 200C44.7715 200 0 155.228 0 100Z" fill="#F0F0F0"/>
<path d="M0 100C49 100 100 100 100 100C155.228 100 100.5 100 200 100C200 155.228 155.228 200 100 200C44.7715 200 0 155.228 0 100Z" fill="#F0F0F0"/>
<circle cx="100" cy="100" r="90" stroke="#222224" stroke-width="20"/>
<rect x="5" y="87" width="190" height="20" fill="#222224"/>
<circle cx="100" cy="100" r="30" fill="#292A2E"/>
<circle cx="100" cy="100" r="15" fill="white"/>
</svg>